<?xml version="1.0" encoding="UTF-8" standalone="no"?>
<!-- Created with Inkscape (http://www.inkscape.org/) -->

<svg
   xmlns:dc="http://purl.org/dc/elements/1.1/"
   xmlns:cc="http://creativecommons.org/ns#"
   xmlns:rdf="http://www.w3.org/1999/02/22-rdf-syntax-ns#"
   xmlns:svg="http://www.w3.org/2000/svg"
   xmlns="http://www.w3.org/2000/svg"
   xmlns:sodipodi="http://sodipodi.sourceforge.net/DTD/sodipodi-0.dtd"
   xmlns:inkscape="http://www.inkscape.org/namespaces/inkscape"
   width="232.42509"
   height="290.54984"
   viewBox="0 0 232.4251 290.54983"
   version="1.1"
   id="svg8"
   sodipodi:docname="finger-select-inkscape.svg"
   inkscape:version="0.92.4 (5da689c313, 2019-01-14)">
  <defs
     id="defs2">
    <inkscape:perspective
       sodipodi:type="inkscape:persp3d"
       inkscape:vp_x="253.50001 : 277.75 : 1"
       inkscape:vp_y="0 : 3779.5274 : 0"
       inkscape:vp_z="847.75003 : 163.24999 : 1"
       inkscape:persp3d-origin="150 : 99.999997 : 1"
       id="perspective4599" />
  </defs>
  <sodipodi:namedview
     id="base"
     pagecolor="#ffffff"
     bordercolor="#666666"
     borderopacity="1.0"
     inkscape:pageopacity="0.0"
     inkscape:pageshadow="2"
     inkscape:zoom="5.6568542"
     inkscape:cx="160.27971"
     inkscape:cy="176.84239"
     inkscape:document-units="px"
     inkscape:current-layer="g875"
     showgrid="false"
     inkscape:window-width="1920"
     inkscape:window-height="1017"
     inkscape:window-x="1912"
     inkscape:window-y="-8"
     inkscape:window-maximized="1"
     inkscape:object-paths="true"
     units="px"
     inkscape:pagecheckerboard="false"
     inkscape:snap-smooth-nodes="false" />
  <metadata
     id="metadata5">
    <rdf:RDF>
      <cc:Work
         rdf:about="">
        <dc:format>image/svg+xml</dc:format>
        <dc:type
           rdf:resource="http://purl.org/dc/dcmitype/StillImage" />
        <dc:title></dc:title>
      </cc:Work>
    </rdf:RDF>
  </metadata>
  <g
     inkscape:label="Layer 1"
     inkscape:groupmode="layer"
     id="layer1"
     transform="translate(-63.583416,-109.24879)">
    <g
       id="g875"
       transform="translate(63.583416,109.24879)">
      <path
         style="fill:none;fill-opacity:1;stroke:#000000;stroke-width:1.85815561px;stroke-linecap:butt;stroke-linejoin:miter;stroke-opacity:1"
         d="M 90.24086,287.90208 C 65.553543,278.2203 58.735661,267.8963 44.888627,249.27999 41.477532,244.69408 31.698887,231.03142 29.347764,224.59326 27.055052,214.83116 25.07621,205.17052 22.760006,198.50736 20.885747,193.11564 14.138771,180.79899 12.027004,174.7266 10.37836,169.98589 10.255809,162.7399 8.2089209,155.89701 6.8990141,151.51793 5.4228811,145.45277 1.4765024,135.88287 c -2.8811867,-6.98685 5.8594728,-11.25498 18.1170216,-5.80672 10.822529,4.81044 12.906949,8.67208 17.992632,15.02954 4.381971,5.47776 11.338612,33.54161 22.276197,41.0769 1.759648,1.21229 3.823847,-0.1425 3.823847,-0.1425 3.403311,-9.60373 12.928881,-18.62113 12.156321,-50.01484 C 75.591525,125.82638 74.091922,108.61179 72.695207,93.170149 72.187304,87.554666 71.917408,76.230509 71.60716,70.018286 71.27307,63.328224 69.998647,52.954412 69.976007,48.065245 c -0.02475,-5.335972 -0.09676,-15.052854 1.293281,-23.298712 1.834863,-10.884309 17.963013,-10.117052 20.891868,-2.365259 2.804369,11.617646 3.238162,18.094071 4.170184,23.550833 1.18185,6.919363 2.16547,15.427318 3.194578,20.506386 1.032022,5.093395 3.237512,14.515669 5.231872,24.123065 2.63942,8.691535 3.12635,31.588042 8.42702,39.301692 2.45347,3.57033 3.94736,4.93439 8.42847,5.23948 -0.0251,-6.38752 0.44175,-11.31791 0.094,-15.67938 -0.82734,-10.37706 -2.74064,-21.86338 -3.65289,-32.619099 -0.59983,-7.071971 0.13363,-19.033253 0.0713,-23.889905 -0.0846,-6.589073 0.16482,-16.634983 0.0695,-23.901209 -0.11196,-8.534288 -0.15176,-29.014407 2.89996,-33.7023676 3.69537,-5.67665103 16.47153,-6.09493802 19.61992,0.1074513 3.77308,7.4330203 5.63591,20.4218263 6.52689,33.2823953 0.56858,8.207304 0.38486,16.640813 1.08551,22.581808 0.87318,7.403734 2.96756,16.415731 3.89178,25.242315 0.85051,8.122744 -0.31848,21.581881 0.40023,31.949161 0.46752,6.74365 0.33744,9.3262 2.05853,12.70339 1.07532,2.10998 5.85605,4.02267 5.85605,4.02267 1.38512,-5.27093 1.49689,-9.3538 1.69222,-15.16177 0.17522,-5.20927 -0.41491,-12.58731 0.0408,-19.73849 0.43058,-6.75742 2.63894,-16.998145 2.85092,-21.671145 0.25085,-5.530013 1.21975,-16.805924 1.43673,-19.760198 0.65026,-8.853276 2.14273,-25.591214 3.09617,-29.71769 2.25599,-9.763798 19.84553,-7.945837 21.60994,0.380646 2.21673,10.461034 1.49518,22.851558 1.05918,29.488952 -0.38092,5.79885 -0.31173,15.701981 -0.39707,20.738562 -0.11832,6.982007 0.78488,17.232073 1.09147,23.202643 0.26513,5.16193 -0.21878,17.33488 -0.9513,23.07467 -1.77582,13.91514 0.90096,17.44691 2.30454,21.55484 1.29837,3.80005 5.90152,5.48296 5.90152,5.48296 0.21924,-9.03558 3.21515,-19.80753 3.57848,-23.48812 0.44834,-4.54146 2.7986,-12.15729 3.5118,-24.00093 0.24811,-4.12051 0.41604,-13.362853 1.30283,-21.530475 0.71803,-6.613163 1.2482,-12.945687 1.95034,-17.647274 2.16975,-14.528799 16.81753,-8.521086 18.04217,-2.46042 0.88398,4.374668 2.01203,17.711465 2.18703,22.654216 0.19566,5.525447 0.74185,21.419513 0.63958,23.648943 -0.29334,6.40311 -0.59407,20.81883 -1.08627,25.13753 -0.70125,6.15295 0.64604,18.26691 0.72939,31.73454 0.0964,15.58975 -0.9936,23.30861 -2.21163,33.73706 -8.86788,75.92491 -30.6335,85.50484 -37.94763,87.08853 -8.97573,1.94339 -94.248694,2.47411 -100.724424,-0.0632 z"
         id="path4544-1"
         inkscape:connector-curvature="0"
         sodipodi:nodetypes="cscssssssssssssscsscscssssssssssscssssssssssssssssssssssssc" />
      <g
         id="g840"
         transform="scale(7.022951)" />
      <text
         id="text4813"
         y="77.790993"
         x="24.156025"
         style="font-style:normal;font-variant:normal;font-weight:normal;font-stretch:normal;font-size:74.32622528px;line-height:1.25;font-family:'AR JULIAN';-inkscape-font-specification:'AR JULIAN';letter-spacing:0px;word-spacing:0px;fill:#000000;fill-opacity:1;stroke:none;stroke-width:1.85815561"
         xml:space="preserve"><tspan
           style="font-style:normal;font-variant:normal;font-weight:normal;font-stretch:normal;font-family:'AR JULIAN';-inkscape-font-specification:'AR JULIAN';stroke-width:1.85815561"
           y="145.89644"
           x="24.156025"
           id="tspan4811"
           sodipodi:role="line" /></text>
      <text
         id="text4817"
         y="25.762627"
         x="366.0567"
         style="font-style:normal;font-variant:normal;font-weight:normal;font-stretch:normal;font-size:74.32622528px;line-height:1.25;font-family:'AR JULIAN';-inkscape-font-specification:'AR JULIAN';letter-spacing:0px;word-spacing:0px;fill:#000000;fill-opacity:1;stroke:none;stroke-width:1.85815561"
         xml:space="preserve"><tspan
           style="font-style:normal;font-variant:normal;font-weight:normal;font-stretch:normal;font-family:'AR JULIAN';-inkscape-font-specification:'AR JULIAN';stroke-width:1.85815561"
           y="93.868073"
           x="366.0567"
           id="tspan4815"
           sodipodi:role="line" /></text>
      <text
         id="text4809"
         y="200.12526"
         x="19.189402"
         style="font-style:normal;font-variant:normal;font-weight:normal;font-stretch:normal;font-size:74.32622528px;line-height:1.25;font-family:'AR JULIAN';-inkscape-font-specification:'AR JULIAN';letter-spacing:0px;word-spacing:0px;fill:#000000;fill-opacity:1;stroke:none;stroke-width:1.85815561"
         xml:space="preserve"><tspan
           style="font-style:normal;font-variant:normal;font-weight:normal;font-stretch:normal;font-size:37.16311264px;font-family:'Comic Sans MS';-inkscape-font-specification:'Comic Sans MS';stroke-width:1.85815561"
           y="200.12526"
           x="19.189402"
           id="tspan4807"
           sodipodi:role="line">T</tspan></text>
      <text
         id="text4839"
         y="110.30539"
         x="79.993736"
         style="font-style:normal;font-variant:normal;font-weight:normal;font-stretch:normal;font-size:39.64065933px;line-height:1.25;font-family:'AR JULIAN';-inkscape-font-specification:'AR JULIAN';letter-spacing:0px;word-spacing:0px;fill:#000000;fill-opacity:1;stroke:none;stroke-width:1.85815561"
         xml:space="preserve"><tspan
           style="font-style:normal;font-variant:normal;font-weight:normal;font-stretch:normal;font-size:37.16311264px;font-family:'Comic Sans MS';-inkscape-font-specification:'Comic Sans MS';stroke-width:1.85815561"
           y="110.30539"
           x="79.993736"
           id="tspan4837"
           sodipodi:role="line">1</tspan></text>
      <text
         id="text4843"
         y="93.913788"
         x="123.10283"
         style="font-style:normal;font-weight:normal;font-size:74.32622528px;line-height:1.25;font-family:sans-serif;letter-spacing:0px;word-spacing:0px;fill:#000000;fill-opacity:1;stroke:none;stroke-width:1.85815561"
         xml:space="preserve"><tspan
           style="font-style:normal;font-variant:normal;font-weight:normal;font-stretch:normal;font-size:37.16311264px;font-family:'Comic Sans MS';-inkscape-font-specification:'Comic Sans MS';stroke-width:1.85815561"
           y="93.913788"
           x="123.10283"
           id="tspan4841"
           sodipodi:role="line">2</tspan></text>
      <text
         id="text4847"
         y="99.624329"
         x="166.86584"
         style="font-style:normal;font-weight:normal;font-size:39.64065933px;line-height:1.25;font-family:sans-serif;letter-spacing:0px;word-spacing:0px;fill:#000000;fill-opacity:1;stroke:none;stroke-width:1.85815561"
         xml:space="preserve"><tspan
           style="font-style:normal;font-variant:normal;font-weight:normal;font-stretch:normal;font-size:37.16311264px;font-family:'Comic Sans MS';-inkscape-font-specification:'Comic Sans MS';stroke-width:1.85815561"
           y="99.624329"
           x="166.86584"
           id="tspan4845"
           sodipodi:role="line">3</tspan></text>
      <text
         id="text4851"
         y="128.58238"
         x="206.55463"
         style="font-style:normal;font-weight:normal;font-size:74.32622528px;line-height:1.25;font-family:sans-serif;letter-spacing:0px;word-spacing:0px;fill:#000000;fill-opacity:1;stroke:none;stroke-width:1.85815561"
         xml:space="preserve"><tspan
           style="font-style:normal;font-variant:normal;font-weight:normal;font-stretch:normal;font-size:37.16311646px;font-family:'Comic Sans MS';-inkscape-font-specification:'Comic Sans MS';stroke-width:1.85815561"
           y="128.58238"
           x="206.55463"
           id="tspan4849"
           sodipodi:role="line">4</tspan></text>
      <text
         id="text4855"
         y="80.980453"
         x="375.77957"
         style="font-style:normal;font-weight:normal;font-size:74.32622528px;line-height:1.25;font-family:sans-serif;letter-spacing:0px;word-spacing:0px;fill:#000000;fill-opacity:1;stroke:none;stroke-width:1.85815561"
         xml:space="preserve"><tspan
           style="stroke-width:1.85815561"
           y="146.74174"
           x="375.77957"
           id="tspan4853"
           sodipodi:role="line" /></text>
      <text
         id="text4809-9"
         y="262.45453"
         x="142.10989"
         style="font-style:normal;font-variant:normal;font-weight:normal;font-stretch:normal;font-size:74.32622528px;line-height:1.25;font-family:'AR JULIAN';-inkscape-font-specification:'AR JULIAN';letter-spacing:0px;word-spacing:0px;fill:#000000;fill-opacity:1;stroke:none;stroke-width:1.85815561"
         xml:space="preserve"><tspan
           style="font-style:normal;font-variant:normal;font-weight:normal;font-stretch:normal;font-size:39.64065933px;font-family:'Comic Sans MS';-inkscape-font-specification:'Comic Sans MS';stroke-width:1.85815561"
           y="262.45453"
           x="142.10989"
           id="tspan4807-3"
           sodipodi:role="line">*</tspan></text>
      <path
         style="fill:none;stroke:#000000;stroke-width:1px;stroke-linecap:butt;stroke-linejoin:miter;stroke-opacity:1"
         d="m 21.387621,195.12983 c 8.561831,-9.13844 16.945588,-18.60335 29.393464,-20.61737 15.755439,5.24676 19.997955,-40.99683 22.52972,-74.47633 9.792574,-1.542991 15.287234,-4.996167 32.773055,-3.119937 5.53647,23.389307 15.00187,22.659227 11.76941,-14.077574 10.64424,-0.621241 10.04643,-4.308497 33.72263,-1.375567 2.49834,20.244698 5.86725,30.913118 12.57357,4.870022 13.24973,-0.867984 18.96785,2.567811 28.08094,4.063622 1.46342,32.926214 7.08886,34.270064 14.18849,24.427374 9.43421,4.07213 17.31088,2.69283 24.87966,0.23594 v 0"
         id="path879"
         inkscape:connector-curvature="0"
         sodipodi:nodetypes="ccccccccccc" />
    </g>
  </g>
</svg>
